<svg width="35" height="36" viewBox="0 0 35 36" fill="none" xmlns="http://www.w3.org/2000/svg">
<path d="M17.4052 0.594774C7.8071 0.594774 0 8.40187 0 18C0 27.5981 7.8071 35.4052 17.4052 35.4052C27.0034 35.4052 34.8105 27.5981 34.8105 18C34.8105 8.40187 27.0034 0.594774 17.4052 0.594774Z" fill="white"/>
<path d="M26.1889 5.5179C24.8602 8.92547 21.8353 9.6327 17.4542 9.6327C16.9827 9.6327 16.5204 9.62657 16.0703 9.62045C15.6356 9.61432 15.2253 9.6082 14.8212 9.6082C14.463 9.6082 14.1017 9.61126 13.7466 9.62657C14.362 8.12026 15.3386 7.09769 16.7347 6.47618C18.6788 5.60975 21.2047 5.60362 23.4335 5.59444C24.404 5.59138 25.3348 5.58832 26.1889 5.5179Z" fill="#0B8044"/>
<path d="M27.5514 6.61097C25.5859 10.8911 21.2078 11.3197 17.4543 11.3197C16.6307 11.3197 15.8408 11.3013 15.1091 11.2952L14.163 14.9936C19.0034 11.0472 25.4083 14.96 24.7225 20.9178C24.2602 24.9286 21.4007 27.5523 18.3758 28.3086C15.0785 29.1321 11.426 27.9014 9.79106 24.5428C9.61655 24.1876 9.31651 23.4773 9.20017 23.0977L12.6782 22.2068C12.7394 22.4058 12.8435 22.6017 12.9537 22.7762C15.2805 26.5298 19.9954 24.653 20.5281 20.7586C21.07 16.7969 15.5132 14.6875 12.9782 19.3166L9.89515 18.0032L9.8431 17.9818L11.331 12.0116C11.4229 11.5891 11.7321 10.4043 11.7842 10.2084C13.465 4.03004 18.8993 3.93206 23.2621 3.91675C21.4588 3.16666 19.481 2.75028 17.4083 2.75028C8.98279 2.75028 2.14929 9.58072 2.14929 18.0093C2.14929 26.4379 8.97973 33.2684 17.4083 33.2684C25.8369 33.2684 32.6674 26.4379 32.6674 18.0093C32.6674 13.4781 30.6926 9.41233 27.5576 6.61709L27.5514 6.61097Z" fill="#0B8044"/>
</svg>
